<svg id="Line_Gradient" data-name="Line Gradient" xmlns="http://www.w3.org/2000/svg" xmlns:xlink="http://www.w3.org/1999/xlink" viewBox="0 0 64 64"><defs><style>.cls-1{fill:url(#linear-gradient);}</style><linearGradient id="linear-gradient" x1="5.31738" y1="32.00073" x2="58.68449" y2="32.00073" gradientUnits="userSpaceOnUse"><stop offset="0" stop-color="#0c0d0d" id="id_105"></stop><stop offset="1" stop-color="#000000" id="id_106"></stop></linearGradient></defs><title>1</title><path class="cls-1" d="M10.97174,25.09418c-.06433,7.86444,1.3678,18.55554,8.56635,24.858A6.35671,6.35671,0,0,0,22.71,51.42236a51.03946,51.03946,0,0,0,8.15137.65772,51.01186,51.01186,0,0,0,8.15137-.6582c3.3018-.54954,5.39362-3.63094,7.10934-6.18234,5.04-1.29881,12.46921-6.52586,12.5596-11.27274.13943-4.14179-4.87488-4.80671-8.06247-4.5151.103-1.518.1437-2.98707.12979-4.37107-.022-3.68671-8.89624-4.97809-12.71576-5.36237a1.00028,1.00028,0,0,0-.19916,1.99025c7.71479.77538,10.91694,2.58739,10.91694,3.38524,0,1.26318-6.31446,3.72217-17.88965,3.72217s-17.88965-2.459-17.88965-3.72217c0-.83105,3.3457-2.69043,11.40527-3.43164a1,1,0,0,0-.18365-1.9912C20.2145,20.04018,11.00064,21.28568,10.97174,25.09418ZM56.1084,32.438c2.53093,3.25816-4.28087,8.43723-8.59491,10.22859a35.96215,35.96215,0,0,0,2.92993-11.19624C53.09509,31.25,55.18713,31.59686,56.1084,32.438ZM30.86133,30.81592c6.99158,0,14.36786-.9552,17.8454-2.99927-.27723,7.03839-1.98554,15.5047-7.83954,20.62964a4.34773,4.34773,0,0,1-2.17481,1.00146,49.05111,49.05111,0,0,1-15.66211.00049,4.36443,4.36443,0,0,1-2.18652-1.01172C14.99908,43.32007,13.292,34.85443,13.015,27.816,16.49207,29.86047,23.86908,30.81592,30.86133,30.81592ZM5.31738,49.55518c0-2.42383,1.87989-4.65918,5.43452-6.46384a1.0003,1.0003,0,0,1,.9061,1.78321C-.63521,51.43106,15.59052,58.062,31.6994,58.00005c14.95308.05269,30.01993-5.60821,22.19419-11.80324a1.0003,1.0003,0,0,1,1.20726-1.59489C65.21391,53.382,47.802,60.19483,31.69922,60,16.90527,60,5.31738,55.41211,5.31738,49.55518Zm22.70313-31.0044c-2.667-2.39941-1.25879-5.96338-.14261-7.51264A1.00044,1.00044,0,0,1,29.501,12.20752c-.10547.14795-2.13184,3.06641-.14258,4.85644,2.6748,2.40479,1.25781,5.90577.1348,7.42085a1.0006,1.0006,0,0,1-1.60746-1.19135C27.97168,23.17627,30.00977,20.33936,28.02051,18.55078Zm6.624-6.624c-2.667-2.39844-1.25976-5.9624-.14261-7.51166A1.00056,1.00056,0,0,1,36.126,5.5835c-.09473.1333-2.13868,3.0625-.14356,4.85644,2.67383,2.40576,1.25684,5.90674.1348,7.42133a1.0003,1.0003,0,0,1-1.60745-1.19037C34.5957,16.55322,36.63281,13.71631,34.64453,11.92676Z" id="id_104"></path></svg>