<svg xmlns="http://www.w3.org/2000/svg" xml:space="preserve" width="1.70666in" height="1.70666in" version="1.1" style="shape-rendering:geometricPrecision; text-rendering:geometricPrecision; image-rendering:optimizeQuality; fill-rule:evenodd; clip-rule:evenodd" viewBox="0 0 1706.66 1706.66" xmlns:xlink="http://www.w3.org/1999/xlink" xmlns:xodm="http://www.corel.com/coreldraw/odm/2003">
 <defs>
  <style type="text/css">
   
    .fil0 {fill:black}
   
  </style>
 </defs>
 <g id="Layer_x0020_1">
  <metadata id="CorelCorpID_0Corel-Layer"></metadata>
  <path class="fil0" d="M1564.55 759.63l-391.78 0c-95.79,0 -95.78,-145.53 0,-145.53l391.78 0c14.82,0 24.52,15.69 17.89,28.94 -31.39,62.76 13.02,84.6 -0.88,107.09 -3.64,5.9 -10.08,9.49 -17.01,9.49zm-391.78 -105.53c-43.13,0 -43.12,65.53 0,65.53l362.85 -0c-5.75,-21.82 -5.75,-43.7 0,-65.53l-362.85 0z" id="id_101" style="fill: rgb(10, 10, 9);"></path>
  <path class="fil0" d="M1466.1 865.18l-391.79 0c-14.82,0 -24.52,-15.7 -17.89,-28.96 31.39,-62.76 -13.02,-84.6 0.88,-107.09 3.64,-5.9 10.08,-9.49 17.01,-9.49l391.79 0c95.78,0 95.76,145.54 0,145.54zm-362.86 -40.02l362.86 0c43.11,0 43.1,-65.53 0,-65.53l-362.86 0c5.75,21.82 5.75,43.71 0,65.53z" id="id_102"></path>
  <path class="fil0" d="M910.53 690.13l-765.05 0c-33.83,0 -61.35,-27.51 -61.35,-61.35l0.01 -529.35c0,-33.83 27.51,-61.35 61.35,-61.35l765.05 0c33.85,0 61.37,27.51 61.37,61.35l0 529.34c-0,33.83 -27.53,61.36 -61.37,61.36zm-765.05 -612.05c-11.78,0 -21.36,9.57 -21.36,21.35l0 529.34c0,11.78 9.59,21.36 21.36,21.36l765.05 0c11.79,0 21.36,-9.59 21.36,-21.36l0 -529.34c0,-11.78 -9.57,-21.35 -21.36,-21.35l-765.05 0z" id="id_103" style="fill: rgb(240, 237, 77);"></path>
  <path class="fil0" d="M951.9 564.41l-847.78 0c-26.33,0 -26.33,-40 0,-40l847.78 0c26.32,0 26.33,40 0,40z" id="id_104" style="fill: rgb(240, 237, 77);"></path>
  <path class="fil0" d="M700.73 871.82l-345.18 0c-11.83,0 -21.13,-10.35 -19.89,-22.11l19.22 -181.69c1.08,-10.18 9.65,-17.9 19.89,-17.9l306.44 -0c10.23,0 18.8,7.72 19.89,17.9l19.61 183.8c0.01,11.05 -8.94,20.01 -19.99,20.01zm-322.94 -40l300.43 0 -15 -141.69 -270.44 0 -14.99 141.69z" id="id_105" style="fill: rgb(240, 237, 77);"></path>
  <path class="fil0" d="M582.8 764.04l-109.59 0c-11.04,0 -20,-8.96 -20,-20l0 -73.91c0,-11.04 8.96,-20 20,-20l109.59 0c11.04,0 20,8.96 20,20l0 73.91c0,11.04 -8.96,20 -20,20zm-89.59 -40l69.59 0 0 -33.91 -69.59 0 0 33.91z" id="id_106" style="fill: rgb(240, 237, 77);"></path>
  <path class="fil0" d="M569.18 627.26l-82.33 0c-26.33,0 -26.33,-40 0,-40l82.33 0c26.33,0 26.33,40 0,40z" id="id_107" style="fill: rgb(240, 237, 77);"></path>
  <path class="fil0" d="M1619.99 1050.91l-1533.31 0c-47.78,0 -86.67,-38.89 -86.67,-86.67l0 -45.78c0,-47.78 38.87,-86.67 86.67,-86.67l1533.31 0c47.78,0 86.67,38.87 86.67,86.67l0 45.76c0,47.79 -38.87,86.68 -86.67,86.68zm-1533.31 -179.09c-54.79,0 -46.67,60.22 -46.67,92.41 0,25.74 20.93,46.65 46.67,46.65l1533.31 0c54.77,0 46.65,-60.22 46.65,-92.41 0,-25.74 -20.93,-46.65 -46.65,-46.65l-1533.31 0z" id="id_108"></path>
  <path class="fil0" d="M277.09 1668.58l-142.54 0c-11.04,0 -20,-8.97 -20,-20l0 -617.69c0,-11.04 8.96,-20 20,-20l142.54 0c11.04,0 20,8.97 20,20l0 617.69c0,11.04 -8.96,20 -20,20zm-122.54 -40.02l102.54 0 0 -577.65 -102.54 0 0 577.65z" id="id_109"></path>
  <path class="fil0" d="M1572.13 1668.58l-142.55 0c-11.04,0 -20,-8.97 -20,-20l0 -617.69c0,-11.04 8.97,-20 20,-20l142.55 0c11.04,0 20,8.97 20,20l0 617.69c0,11.04 -8.96,20 -20,20zm-122.54 -40.02l102.54 0 0 -577.65 -102.54 0 0 577.65z" id="id_110"></path>
  <path class="fil0" d="M1053.16 1569.02c-27.9,0 -20,-41.19 -20,-79.33l-359.65 0c0,38.16 7.89,79.33 -20,79.33 -11.04,0 -20,-8.97 -20,-20l0 -79.35c0,-11.04 8.96,-20 20,-20l399.64 0c11.04,0 20,8.97 20,20l0 79.35c0.01,11.04 -8.94,20 -19.99,20z" id="id_111"></path>
  <path class="fil0" d="M917.91 1489.67l-129.19 0c-11.04,0 -20,-8.97 -20,-20l0 -228.9c0,-11.04 8.96,-20 20,-20l129.19 0c11.04,0 20,8.97 20,20l0 228.9c0.02,11.04 -8.96,20 -20,20zm-109.18 -40l89.18 0 0 -188.9 -89.18 0 0 188.9z" id="id_112"></path>
  <path class="fil0" d="M1005 1260.77l-303.34 0c-109.49,0 -109.5,-166.39 0,-166.39l303.34 0c109.49,0 109.5,166.39 0,166.39zm-303.34 -126.39c-56.85,0 -56.85,86.36 0,86.36l303.34 0c56.84,0 56.82,-86.36 0,-86.36l-303.34 0z" id="id_113"></path>
  <path class="fil0" d="M853.33 1569.02c-11.04,0 -20,-8.97 -20,-20l0 -79.35c0,-26.33 40,-26.32 40,0l0 79.35c0,11.04 -8.96,20 -20,20z" id="id_114"></path>
  <path class="fil0" d="M1053.16 1649.07c-79,0 -79,-120.05 0,-120.05 79,0 79,120.05 0,120.05zm0 -80.05c-26.34,0 -26.35,40.03 0,40.03 26.35,0 26.35,-40.03 0,-40.03z" id="id_115"></path>
  <path class="fil0" d="M853.33 1649.07c-79,0 -79.01,-120.05 0,-120.05 79,0 79,120.05 0,120.05zm0 -80.05c-26.36,0 -26.36,40.03 0,40.03 26.35,0 26.35,-40.03 0,-40.03z" id="id_116"></path>
  <path class="fil0" d="M653.51 1649.07c-79,0 -79.01,-120.05 0,-120.05 79,0 79.01,120.05 0,120.05zm0 -80.05c-26.36,0 -26.36,40.03 0,40.03 26.36,0 26.36,-40.03 0,-40.03z" id="id_117"></path>
 </g>
</svg>