<svg xmlns="http://www.w3.org/2000/svg" viewBox="0 0 64 64"><g id="outline"><path d="M59,33a2.968,2.968,0,0,0-1.03.194A5.334,5.334,0,0,0,55,28.623,3.966,3.966,0,0,0,56,26V23a4,4,0,0,0-8,0v3a3.976,3.976,0,0,0,1.373,2.993,5.424,5.424,0,0,0-2.357,4.129A3.414,3.414,0,0,0,47,33.5V34H42a2.96,2.96,0,0,0-1,.185,6.276,6.276,0,0,0-.655-2.738,6.191,6.191,0,0,0-4.923-3.4A3.952,3.952,0,0,0,36,26V23a4,4,0,0,0-8,0v3a3.952,3.952,0,0,0,.581,2.045,6.19,6.19,0,0,0-4.923,3.4A6.268,6.268,0,0,0,23,34.185,2.96,2.96,0,0,0,22,34H17v-.5a3.063,3.063,0,0,0-.012-.33,5.481,5.481,0,0,0-2.363-4.176A3.973,3.973,0,0,0,16,26V23a4,4,0,0,0-8,0v3a3.966,3.966,0,0,0,1,2.622A5.338,5.338,0,0,0,6.03,33.194,2.968,2.968,0,0,0,5,33a3,3,0,0,0-3,3V49a3,3,0,0,0,3,3H8v6H5a1,1,0,0,0-1,1v1H14V59a1,1,0,0,0-1-1H10V52h5a2.966,2.966,0,0,0,1-.184V61a1,1,0,0,0,1,1h7a1,1,0,0,0,1-1V59a3,3,0,0,0-3-3V47a5.006,5.006,0,0,0-5-5V40h4.184A2.966,2.966,0,0,0,21,41a3,3,0,0,0,3,3h3V61a1,1,0,0,0,1,1h8a1,1,0,0,0,1-1V44h3a3,3,0,0,0,3-3,2.966,2.966,0,0,0-.184-1H47v2a5.006,5.006,0,0,0-5,5v9a3,3,0,0,0-3,3v2a1,1,0,0,0,1,1h7a1,1,0,0,0,1-1V51.816A2.966,2.966,0,0,0,49,52h5v6H51a1,1,0,0,0-1,1v1H60V59a1,1,0,0,0-1-1H56V52h3a3,3,0,0,0,3-3V36A3,3,0,0,0,59,33ZM50,23a2,2,0,0,1,4,0v3a2,2,0,0,1-4,0ZM42,36h1v2H41V37A1,1,0,0,1,42,36ZM30,23a2,2,0,0,1,4,0v3a2,2,0,0,1-4,0ZM25,34.236A4.236,4.236,0,0,1,29.236,30h5.528a4.213,4.213,0,0,1,3.789,2.341A4.257,4.257,0,0,1,39,34.236V38H37V35H35v3H29V35H27v3H25V34.236ZM19,36v2H13a1,1,0,0,1-1-1V33.5a1.5,1.5,0,0,1,3,0V35a1,1,0,0,0,1,1ZM10,23a2,2,0,0,1,4,0v3a2,2,0,0,1-4,0Zm5,27H5a1,1,0,0,1-1-1V36a1,1,0,0,1,2,0V47a1,1,0,0,0,1,1h8a1,1,0,0,1,0,2Zm8,9v1H18V58h4A1,1,0,0,1,23,59ZM20,47v9H18V49a3,3,0,0,0-3-3H8V44h9A3,3,0,0,1,20,47Zm-5-5H8V33.5a3.452,3.452,0,0,1,4.5-3.337A3.494,3.494,0,0,0,10,33.5V37a3,3,0,0,0,3,3h2Zm6-6h1a1,1,0,0,1,1,1v1H21ZM35,60H29V44h6Zm6-19a1,1,0,0,1-1,1H24a1,1,0,0,1,0-2H40A1,1,0,0,1,41,41Zm4-5h3a1,1,0,0,0,1-1V33.5a1.5,1.5,0,0,1,3,0V37a1,1,0,0,1-1,1H45Zm4,4h2a3,3,0,0,0,3-3V33.5a3.492,3.492,0,0,0-2.5-3.337A3.486,3.486,0,0,1,56,33.5V42H49Zm-5,7a3,3,0,0,1,3-3h9v2H49a3,3,0,0,0-3,3v7H44Zm2,13H41V59a1,1,0,0,1,1-1h4ZM60,49a1,1,0,0,1-1,1H49a1,1,0,0,1,0-2h8a1,1,0,0,0,1-1V36a1,1,0,0,1,2,0Z" id="id_101"></path><path d="M52,62a1.052,1.052,0,0,0,.71-.29,1.155,1.155,0,0,0,.21-.33.942.942,0,0,0,0-.76,1.155,1.155,0,0,0-.21-.33,1.047,1.047,0,0,0-1.42,0,1.032,1.032,0,0,0-.21.33.943.943,0,0,0,0,.76,1.155,1.155,0,0,0,.21.33A1.05,1.05,0,0,0,52,62Z" id="id_102"></path><path d="M58.2,61.98a.646.646,0,0,0,.18-.06.776.776,0,0,0,.18-.09l.15-.12A1.052,1.052,0,0,0,59,61a1,1,0,0,0-.08-.38,1.155,1.155,0,0,0-.21-.33,1.047,1.047,0,0,0-1.42,0,1.155,1.155,0,0,0-.21.33A.838.838,0,0,0,57,61a.99.99,0,0,0,1,1A1.369,1.369,0,0,0,58.2,61.98Z" id="id_103"></path><path d="M11.62,61.92a.6.6,0,0,0,.19.06A1.213,1.213,0,0,0,12,62a1.052,1.052,0,0,0,.71-.29,1.032,1.032,0,0,0,.21-.33.943.943,0,0,0,0-.76,1.032,1.032,0,0,0-.21-.33,1.047,1.047,0,0,0-1.42,0,1.032,1.032,0,0,0-.21.33A1,1,0,0,0,11,61a1.047,1.047,0,0,0,.29.71l.149.12A.782.782,0,0,0,11.62,61.92Z" id="id_104"></path><path d="M6,62a1.052,1.052,0,0,0,.71-.29,1.155,1.155,0,0,0,.21-.33.943.943,0,0,0,0-.76,1.032,1.032,0,0,0-.21-.33,1.047,1.047,0,0,0-1.42,0,1.032,1.032,0,0,0-.21.33.942.942,0,0,0,0,.76,1.155,1.155,0,0,0,.21.33A1.05,1.05,0,0,0,6,62Z" id="id_105"></path><rect x="21" y="7" width="2" height="2" id="id_106" style="fill: rgb(240, 237, 77);"></rect><rect x="17" y="7" width="2" height="2" id="id_107" style="fill: rgb(240, 237, 77);"></rect><rect x="13" y="7" width="2" height="2" id="id_108" style="fill: rgb(240, 237, 77);"></rect><path d="M11.566,16.9a1,1,0,0,0,1.059-.12L17.351,13H23A5,5,0,0,0,23,3H13a4.991,4.991,0,0,0-2,9.568V16A1,1,0,0,0,11.566,16.9ZM10,8a3,3,0,0,1,3-3H23a3,3,0,0,1,0,6H17a1,1,0,0,0-.625.219L13,13.919V11.858a1,1,0,0,0-.749-.968A2.992,2.992,0,0,1,10,8Z" id="id_109"></path><rect x="41" y="6" width="2" height="2" id="id_110" style="fill: rgb(240, 237, 77);"></rect><rect x="45" y="6" width="2" height="2" id="id_111" style="fill: rgb(240, 237, 77);"></rect><rect x="31" y="15" width="2" height="2" id="id_112" style="fill: rgb(240, 237, 77);"></rect><rect x="27" y="15" width="2" height="2" id="id_113" style="fill: rgb(240, 237, 77);"></rect><rect x="35" y="15" width="2" height="2" id="id_114" style="fill: rgb(240, 237, 77);"></rect><rect x="49" y="6" width="2" height="2" id="id_115" style="fill: rgb(240, 237, 77);"></rect><path d="M41,12h5.649l4.726,3.781A1,1,0,0,0,53,15V11.568A4.991,4.991,0,0,0,51,2H41a5,5,0,0,0,0,10Zm0-8H51a2.992,2.992,0,0,1,.749,5.89,1,1,0,0,0-.749.968v2.061l-3.375-2.7A1,1,0,0,0,47,10H41a3,3,0,0,1,0-6Z" id="id_116"></path></g></svg>