<svg xmlns="http://www.w3.org/2000/svg" xml:space="preserve" width="1.70666in" height="1.70666in" version="1.1" style="shape-rendering:geometricPrecision; text-rendering:geometricPrecision; image-rendering:optimizeQuality; fill-rule:evenodd; clip-rule:evenodd" viewBox="0 0 1706.66 1706.66" xmlns:xlink="http://www.w3.org/1999/xlink" xmlns:xodm="http://www.corel.com/coreldraw/odm/2003">
 <defs>
  <style type="text/css">
   
    .fil0 {fill:black}
   
  </style>
 </defs>
 <g id="Layer_x0020_1">
  <metadata id="CorelCorpID_0Corel-Layer"></metadata>
  <path class="fil0" d="M1085.2 562.37c-26.51,0 -19.98,-35.23 -19.98,-64.32 0,-75.29 -60.98,-136.6 -136.09,-137.01l-66.7 39.89c-6.41,3.82 -14.39,3.76 -20.74,-0.15l-64.35 -39.72c-75.04,0.5 -135.94,61.76 -135.94,137.01 0,29.09 6.54,64.32 -19.98,64.32 -26.52,0 -19.98,-35.23 -19.98,-64.32 0,-151.78 163.5,-191.75 192.08,-174l58.81 36.3c24.36,-14.57 59.48,-40.67 77.12,-39.32 96.98,0.6 175.71,79.78 175.71,177.01 0,29.15 6.54,64.31 -19.96,64.31z" id="id_101" style="fill: rgb(240, 237, 77);"></path>
  <path class="fil0" d="M717.93 562.37c-11.03,0 -19.98,-8.96 -19.98,-20l0 -74.37c0,-26.33 39.95,-26.33 39.95,0l0 74.37c0,11.04 -8.94,20 -19.98,20z" id="id_102" style="fill: rgb(240, 237, 77);"></path>
  <path class="fil0" d="M988.72 562.37c-11.03,0 -19.98,-8.96 -19.98,-20l0 -74.37c0,-26.32 39.95,-26.32 39.95,0l0 74.37c0,11.04 -8.94,20 -19.98,20z" id="id_103" style="fill: rgb(240, 237, 77);"></path>
  <path class="fil0" d="M783.04 361.04c-20.89,0 -27.77,-28.42 -8.99,-37.87 16.47,-8.3 0.21,-49.8 30.3,-49.76 40.31,0.05 12.67,87.64 -21.31,87.64z" id="id_104" style="fill: rgb(240, 237, 77);"></path>
  <path class="fil0" d="M923.6 361.04c-34.04,0 -61.72,-88.69 -21.24,-88.65 30.08,0.02 13.98,42.63 30.2,50.78 18.73,9.41 11.96,37.87 -8.96,37.87z" id="id_105" style="fill: rgb(240, 237, 77);"></path>
  <path class="fil0" d="M870.37 320.41l-36.03 0c-49.86,0 -90.43,-41.79 -90.43,-93.17l0 -69.4c0,-26.33 39.95,-26.33 39.95,0l0 69.4c0,29.32 22.64,53.17 50.47,53.17l36.03 0c27.83,0 50.47,-23.85 50.47,-53.17 0,-39.89 -8.14,-82.35 19.98,-82.35 28.12,0 19.97,42.46 19.98,82.35 0.01,51.37 -40.57,93.17 -90.43,93.17z" id="id_106" style="fill: rgb(240, 237, 77);"></path>
  <path class="fil0" d="M933.66 185.3c-35.1,0 -81.73,-15.2 -97.97,-26.96 -74.57,21.06 -97.6,40.4 -91.7,-34.03 2.06,-23.75 23.82,-69.31 95.26,-65.85 11.45,-1.56 34.94,-12.77 69.15,-4.88 32.41,7.47 64.22,38.49 62.06,56.18 -2.93,23.99 14.52,10.56 22.63,27.98 9.95,21.35 -23.44,47.55 -59.43,47.55zm-92.89 -69.17c20.81,0 1.76,17.53 85.84,28.67 4.6,0.61 8.79,0.61 12.36,0.17 -6.05,-9.78 -8.52,-21.43 -8.6,-31.79 -2.44,-6.79 -22.47,-22.21 -46.1,-22.21 -32.44,0 -17.72,7.31 -52.93,7.31 -43.36,0 -47.46,25.13 -47.46,33.16l56.88 -15.3z" id="id_107" style="fill: rgb(240, 237, 77);"></path>
  <path class="fil0" d="M853.32 508.54c-15.44,0 -31.85,-27.69 -47.92,-47.65 -9.5,-11.8 1.61,-66.45 4.66,-93.18 2.99,-26.24 42.69,-21.59 39.7,4.56l-8.02 70.03 11.57 14.37 11.56 -14.36 -8.1 -70.89c-2.98,-26.13 36.7,-30.76 39.7,-4.54 11.96,104.26 20.43,74.52 -27.61,134.22 -3.78,4.7 -9.5,7.44 -15.55,7.44z" id="id_108" style="fill: rgb(240, 237, 77);"></path>
  <path class="fil0" d="M1215.01 730.7l-723.39 0c-57.37,0 -104.05,-46.72 -104.05,-104.17 0,-57.44 46.67,-104.17 104.05,-104.17l723.4 0c57.37,0 104.05,46.72 104.05,104.17 0,57.44 -46.69,104.16 -104.06,104.16zm-723.39 -168.34c-84.35,0 -84.35,128.33 0,128.33l723.4 0c84.33,0 84.33,-128.33 0,-128.33l-723.4 0z" id="id_109"></path>
  <path class="fil0" d="M1215.01 730.7l-723.39 0c-57.37,0 -104.05,-46.72 -104.05,-104.17 0,-57.44 46.67,-104.17 104.05,-104.17l723.4 0c57.37,0 104.05,46.72 104.05,104.17 0,57.44 -46.69,104.16 -104.06,104.16zm-723.39 -168.34c-84.35,0 -84.35,128.33 0,128.33l723.4 0c84.33,0 84.33,-128.33 0,-128.33l-723.4 0z" id="id_110"></path>
  <path class="fil0" d="M1215.01 730.7l-723.39 0c-57.37,0 -104.05,-46.72 -104.05,-104.17 0,-57.44 46.67,-104.17 104.05,-104.17l723.4 0c57.37,0 104.05,46.72 104.05,104.17 0,57.44 -46.69,104.16 -104.06,104.16zm-723.39 -168.34c-84.35,0 -84.35,128.33 0,128.33l723.4 0c84.33,0 84.33,-128.33 0,-128.33l-723.4 0z" id="id_111"></path>
  <path class="fil0" d="M1167.11 1261.14l-155.17 0c-26.3,0 -26.29,-40 0,-40l135.19 0 0 -510.44c0,-26.32 39.95,-26.32 39.95,0l0 530.44c0.02,11.05 -8.94,20 -19.98,20zm-473.11 0l-154.48 0c-11.03,0 -19.98,-8.97 -19.98,-20l0 -530.44c0,-26.33 39.95,-26.33 39.95,0l0 510.44 134.48 0c26.29,0 26.3,40 0.02,40z" id="id_112"></path>
  <path class="fil0" d="M1216.39 562.35c-11.03,0 -19.98,-8.96 -19.98,-20l0 -106.86 -85.06 -40.46c-23.74,-11.28 -6.64,-47.41 17.15,-36.12l96.46 45.87c6.96,3.32 11.4,10.35 11.4,18.07l0 119.5c0.01,11.06 -8.94,20 -19.97,20z" id="id_113"></path>
  <path class="fil0" d="M490.25 562.35c-11.02,0 -19.98,-8.96 -19.98,-20l0 -119.5c0,-7.72 4.44,-14.75 11.41,-18.07l96.47 -45.87c23.74,-11.29 40.9,24.82 17.13,36.12l-85.06 40.46 0 106.86c0,11.06 -8.94,20 -19.98,20z" id="id_114"></path>
  <path class="fil0" d="M497.5 1655.86l-476.55 0c-27.64,0 -19.98,-40.1 -19.98,-76.68 0,-97.75 69.82,-181.14 166.02,-198.26 29.11,-5.14 25.48,51.53 92.23,51.53 66.77,0 63.1,-56.66 92.24,-51.53 96.19,17.12 166.02,100.51 166.02,198.26 0,36.59 7.66,76.68 -19.98,76.68zm-456.57 -40l436.59 0 0 -36.68c0,-73.97 -49.9,-137.67 -120.38,-156.1 -48.74,65.72 -147.1,65.74 -195.84,0 -70.48,18.43 -120.38,82.13 -120.38,156.1l0 36.68z" id="id_115"></path>
  <path class="fil0" d="M258.65 1371.31c-67.2,0 -121.89,-54.74 -121.89,-122.03 0,-67.28 54.67,-122.01 121.89,-122.01 67.21,0 121.88,54.73 121.88,122.01 0,67.29 -54.67,122.03 -121.88,122.03zm0 -204.02c-107.84,0 -107.83,164.01 0,164.01 107.83,0 107.84,-164.01 0,-164.01z" id="id_116"></path>
  <path class="fil0" d="M1091.6 1655.86l-476.54 0c-27.64,0 -19.98,-40.1 -19.98,-76.68 0,-97.75 69.82,-181.14 166.02,-198.26 29.13,-5.13 25.47,51.53 92.23,51.53 66.73,0 63.1,-56.62 92.24,-51.53 96.21,17.12 166.03,100.51 166.03,198.26 0,36.58 7.66,76.68 -19.99,76.68zm-456.57 -40l436.59 0 0 -36.68c0,-73.97 -49.9,-137.67 -120.37,-156.1 -48.77,65.7 -147.09,65.75 -195.84,0 -70.47,18.43 -120.37,82.13 -120.37,156.1l0 36.68z" id="id_117" style="fill: rgb(5, 5, 5);"></path>
  <path class="fil0" d="M852.74 1371.31c-67.2,0 -121.87,-54.74 -121.87,-122.03 0,-67.28 54.67,-122.01 121.87,-122.01 67.2,0 121.9,54.73 121.9,122.01 0,67.29 -54.69,122.03 -121.9,122.03zm0 -204.02c-107.83,0 -107.81,164.01 0,164.01 107.82,0 107.85,-164.01 0,-164.01z" id="id_118"></path>
  <path class="fil0" d="M1685.69 1655.86l-476.56 0c-27.64,0 -19.98,-40.1 -19.98,-76.68 0,-97.75 69.82,-181.14 166.03,-198.26 29.17,-5.11 25.47,51.53 92.24,51.53 66.75,0 63.08,-56.62 92.24,-51.53 96.21,17.12 166.03,100.51 166.03,198.26 0,36.57 7.66,76.68 -20,76.68zm-456.57 -40l436.59 0 0 -36.68c0,-73.97 -49.9,-137.67 -120.38,-156.1 -48.75,65.73 -147.08,65.72 -195.85,0 -70.48,18.43 -120.38,82.13 -120.38,156.1l0 36.68 0.02 0z" id="id_119"></path>
  <path class="fil0" d="M1446.84 1371.31c-67.21,0 -121.89,-54.74 -121.89,-122.03 0,-67.28 54.67,-122.01 121.89,-122.01 67.21,0 121.89,54.73 121.89,122.01 0,67.29 -54.67,122.03 -121.89,122.03zm0 -204.02c-107.83,0 -107.82,164.01 0,164.01 107.83,0 107.82,-164.01 0,-164.01z" id="id_120"></path>
 </g>
</svg>