<svg version="1.1" id="Layer_1" xmlns="http://www.w3.org/2000/svg" xmlns:xlink="http://www.w3.org/1999/xlink" x="0px" y="0px" viewBox="0 0 212.6577 270.6445" enable-background="new 0 0 212.6577 270.6445" xml:space="preserve">
<g>
	<path d="M167.0437,110.4979c-0.0295-0.0011-0.0571-0.0085-0.0869-0.0085h-11.4586c-0.0305,0-0.0587,0.0075-0.0889,0.0087
		c-0.8125,0.0068-2.4707,0.2372-4.1799,1.7943c-3.7455,3.4119-5.3199,11.0973-4.6941,22.8277
		c0.0905,0.5291,0.1802,1.0635,0.27,1.5977c0.3866,0.7733,1.2031,1.2985,2.1325,1.2983c0.0466,0,0.0939-0.0011,0.1407-0.0039
		c1.3083-0.0742,2.3067-1.1626,2.2302-2.4307c-0.6097-10.1044,0.5714-15.4878,1.8972-18.1613v9.5119v5.446v28.1799
		c0,1.964,1.6422,3.5551,3.6667,3.5551c2.0251,0,3.6674-1.5911,3.6674-3.5551v-25.9576h1.3746v25.9576
		c0,1.964,1.6422,3.5551,3.6667,3.5551c2.0251,0,3.6674-1.5911,3.6674-3.5551V132.378v-5.446v-9.5112
		c1.3258,2.6738,2.5067,8.0573,1.897,18.1605c-0.0765,1.2681,0.9219,2.3566,2.2302,2.4307
		c0.0472,0.0028,0.0938,0.0039,0.1407,0.0039c1.2469,0,2.2925-0.9435,2.3663-2.1661c0.733-12.1482-0.8342-20.074-4.658-23.5575
		C169.5146,110.7338,167.8556,110.5042,167.0437,110.4979z" id="id_101"></path>
	<ellipse cx="161.2275" cy="102.381" rx="6.6732" ry="6.4699" id="id_102" style="stroke: rgb(5, 5, 5);"></ellipse>
	<path d="M203.6427,110.4979c-0.0295-0.0011-0.0571-0.0085-0.0869-0.0085h-11.4586c-0.0305,0-0.0587,0.0075-0.0889,0.0087
		c-0.8126,0.0068-2.4707,0.2372-4.1799,1.7943c-3.8237,3.4832-5.391,11.4091-4.6579,23.5575
		c0.0739,1.2226,1.1194,2.1664,2.3663,2.1661c0.0466,0,0.0938-0.0011,0.1407-0.0039c1.3083-0.0742,2.3066-1.1626,2.2302-2.4307
		c-0.6097-10.1044,0.5714-15.4878,1.8972-18.1613v9.5119v5.446v28.1799c0,1.964,1.6423,3.5551,3.6668,3.5551
		c2.0251,0,3.6674-1.5911,3.6674-3.5551v-25.9576h1.3746v25.9576c0,1.964,1.6422,3.5551,3.6667,3.5551
		c2.0251,0,3.6674-1.5911,3.6674-3.5551V132.378v-5.446v-9.5113c1.3258,2.6737,2.5067,8.0573,1.897,18.1606
		c-0.0765,1.2681,0.9219,2.3566,2.2302,2.4307c0.0472,0.0028,0.0939,0.0039,0.1408,0.0039c1.2469,0,2.2924-0.9435,2.3663-2.1661
		c0.7331-12.1482-0.8341-20.074-4.6579-23.5575C206.1136,110.7337,204.4547,110.5042,203.6427,110.4979z" id="id_103" style="fill: rgb(12, 13, 13);"></path>
	<ellipse cx="197.8266" cy="102.381" rx="6.6732" ry="6.4699" id="id_104" style="fill: rgb(9, 10, 10); stroke: rgb(15, 15, 14);"></ellipse>
	<path d="M20.6475,110.4979c-0.0295-0.0011-0.0571-0.0085-0.0869-0.0085H9.1021c-0.0305,0-0.0587,0.0075-0.0889,0.0087
		c-0.8125,0.0068-2.4706,0.2372-4.1799,1.7943c-3.8238,3.4832-5.391,11.4091-4.658,23.5575
		c0.0739,1.2226,1.1194,2.1664,2.3663,2.1661c0.0466,0,0.0939-0.0011,0.1407-0.0039c1.3083-0.0742,2.3067-1.1626,2.2302-2.4307
		c-0.6097-10.1044,0.5714-15.4878,1.8972-18.1613v9.5119v5.446v28.1799c0,1.964,1.6422,3.5551,3.6667,3.5551
		c2.0251,0,3.6674-1.5911,3.6674-3.5551v-25.9576h1.3746v25.9576c0,1.964,1.6422,3.5551,3.6667,3.5551
		c2.0251,0,3.6674-1.5911,3.6674-3.5551V132.378v-5.446v-9.5112c1.3258,2.6738,2.5067,8.0573,1.897,18.1605
		c-0.0765,1.2681,0.9219,2.3566,2.2302,2.4307c0.0472,0.0028,0.0938,0.0039,0.1407,0.0039c1.2469,0,2.2925-0.9435,2.3663-2.1661
		c0.733-12.1482-0.8342-20.074-4.658-23.5575C23.1184,110.7338,21.4594,110.5042,20.6475,110.4979z" id="id_105"></path>
	<ellipse cx="14.8313" cy="102.381" rx="6.6732" ry="6.4699" id="id_106"></ellipse>
	<path d="M52.4713,131.6533c-0.1015-7.4977,2.338-14.5352,6.186-20.9385c-0.5839-0.1641-1.0698-0.2142-1.4108-0.2169
		c-0.0295-0.0011-0.0571-0.0085-0.0869-0.0085H45.7011c-0.0305,0-0.0587,0.0075-0.0889,0.0087
		c-0.8126,0.0068-2.4706,0.2372-4.1799,1.7943c-3.8237,3.4832-5.391,11.4091-4.6579,23.5575
		c0.0739,1.2226,1.1194,2.1664,2.3663,2.1661c0.0466,0,0.0938-0.0011,0.1407-0.0039c1.3083-0.0742,2.3066-1.1626,2.2302-2.4307
		c-0.6097-10.1044,0.5714-15.4878,1.8972-18.1613v9.5119v5.446v28.1799c0,1.964,1.6423,3.5551,3.6668,3.5551
		c2.0251,0,3.6674-1.5911,3.6674-3.5551v-25.9576h1.3746v25.9576c0,1.964,1.6422,3.5551,3.6667,3.5551
		c2.0251,0,3.6674-1.5911,3.6674-3.5551v-9.0349C54.9108,145.5426,52.5694,138.9081,52.4713,131.6533z" id="id_107" style="fill: rgb(19, 20, 20);"></path>
	<ellipse cx="51.4304" cy="102.381" rx="6.6732" ry="6.4699" id="id_108"></ellipse>
	<path d="M159.5421,15.583c-0.6028-2.5427-6.4605-2.3311-10.9448-0.8452c-1.0224-3.6689-2.5438-8.771-4.1328-12.8062
		c-0.6104-1.5469-2.3932-2.3262-3.9948-1.7324c-1.5965,0.5908-2.3962,2.3252-1.7869,3.873
		c2.3424,5.9463,4.6309,14.7332,5.0867,16.5173c7.6375,34.2241-7.2972,46.1033-23.5313,53.1508
		c-3.0821,6.5527-9.0581,11.7636-16.7859,13.7274c-2.1293,0.541-4.3161,0.8154-6.4988,0.8154c-2.3367,0-4.6096-0.3217-6.7822-0.9031
		c-13.8251,8.8943-32.8014,25.1204-32.5429,44.2078c0.1783,13.1958,9.236,24.1753,26.9364,32.7007
		c-1.7304,26.8574-9.2143,58.3984-30.7106,84.314c-4.4621,5.3799-3.5808,13.248,1.9672,17.5752
		c2.3821,1.8564,5.2367,2.7588,8.0721,2.7588c3.7701,0,7.5081-1.5957,10.0554-4.666
		c24.4767-29.5088,33.6321-64.2707,36.1407-94.2441c3.5057,0.4844,7.0513,0.8977,10.3933,1.2153
		c3.2983,29.6951,3.7616,61.3347-4.3463,82.5581c-2.4728,6.4736,0.9347,13.666,7.6118,16.0635
		c1.4766,0.5303,2.9896,0.7813,4.4763,0.7813c5.2397,0,10.1662-3.1191,12.092-8.1611
		c21.3648-55.9238-6.176-163.6963-9.4289-175.9565C149.7431,77.3107,169.942,59.4043,159.5421,15.583z M74.1292,131.3779
		c-0.0705-5.2126,3.197-10.9194,7.9346-16.2783c1.1986,7.2036,2.5806,18.0598,2.8696,30.9827
		C78.9046,142.1687,74.2082,137.2456,74.1292,131.3779z" id="id_109" style="fill: rgb(240, 237, 77);"></path>
	<path d="M102.8505,85.2428c12.3973-3.1501,19.8155-15.4479,16.5679-27.4699c-3.2491-12.0196-15.9353-19.2114-28.3326-16.0612
		c-12.3994,3.1506-19.816,15.4461-16.5664,27.4676C77.7669,81.2011,90.4508,88.3914,102.8505,85.2428z M115.0718,63.1187
		c0,0-2.3921,20.4177-20.954,10.1201C94.1178,73.2388,108.512,71.1555,115.0718,63.1187z" id="id_110" style="fill: rgb(240, 237, 77);"></path>
</g>
</svg>