<svg version="1.1" id="Layer_1" xmlns="http://www.w3.org/2000/svg" xmlns:xlink="http://www.w3.org/1999/xlink" x="0px" y="0px" viewBox="0 0 100.353 100.353" style="enable-background:new 0 0 100.353 100.353;" xml:space="preserve">
<g>
	<path style="fill:none;stroke:#231F20;stroke-width:3;stroke-linecap:round;stroke-linejoin:round;stroke-miterlimit:10;" d="
		M56.421,77.1c0,3.453-2.791,6.244-6.253,6.244c-3.449,0-6.244-2.792-6.244-6.244c0-3.453,2.796-6.245,6.244-6.245
		C53.63,70.855,56.421,73.647,56.421,77.1z" id="id_101"></path>
	<path style="fill:none;stroke:#231F20;stroke-width:3;stroke-linecap:round;stroke-linejoin:round;stroke-miterlimit:10;" d="
		M30.75,61.607c4.396-5.955,11.453-9.82,19.419-9.82c7.657,0,14.464,3.567,18.876,9.11" id="id_102"></path>
	<path style="fill:none;stroke:#231F20;stroke-width:3;stroke-linecap:round;stroke-linejoin:round;stroke-miterlimit:10;" d="
		M18.922,50.143c7.436-8.991,18.672-14.73,31.246-14.73c12.232,0,23.174,5.408,30.594,13.963" id="id_103"></path>
	<path style="fill: none; stroke: rgb(240, 237, 77); stroke-width: 3; stroke-linecap: round; stroke-linejoin: round; stroke-miterlimit: 10;" d="
		M8.641,39.837c10.081-11.611,24.941-18.946,41.528-18.946c16.28,0,30.9,7.069,40.972,18.297" id="id_104"></path>
</g>
</svg>