<?xml version="1.0" ?>
<!-- Uploaded to: SVG Repo, www.svgrepo.com, Generator: SVG Repo Mixer Tools -->
<svg fill="#000000" width="800px" height="800px" viewBox="0 0 64 64" xmlns="http://www.w3.org/2000/svg">
<title/>
<g data-name="Layer 47" id="Layer_47">
<path d="M45,13V3H19V13H3V61H61V13ZM21,5H43V37H21ZM5,15H19V37H5ZM25,59V43h6V59Zm8,0V43h6V59Zm26,0H41V41H23V59H5V39H59ZM45,37V15H59V37Z"/>
<path d="M7,17V35H17V17Zm8,16H9V27h6ZM9,25V19h6v6Z"/>
<path d="M47,17V35H57V17Zm8,16H49V27h6Zm-6-8V19h6v6Z"/>
<path d="M7,49H21V41H7Zm2-6H19v4H9Z"/>
<path d="M7,57H21V51H7Zm2-4H19v2H9Z"/>
<path d="M43,49H57V41H43Zm2-6H55v4H45Z"/>
<path d="M43,57H57V51H43Zm2-4H55v2H45Z"/>
<rect height="4" width="2" x="28" y="49"/>
<rect height="4" width="2" x="34" y="49"/>
<rect height="2" width="16" x="24" y="10"/>
<rect height="2" width="16" x="24" y="20"/>
<rect height="2" width="16" x="24" y="30"/>
</g>
</svg>